<svg width="24" height="24" viewBox="0 0 24 24" fill="none" xmlns="http://www.w3.org/2000/svg">
<path fill-rule="evenodd" clip-rule="evenodd" d="M11.592 9.1667C10.936 9.1667 9.91404 8.4027 8.85204 8.4027C7.44004 8.4027 6.14804 9.2657 5.42004 10.5317C3.95604 13.0737 5.04304 16.8297 6.47104 18.8957C7.17204 19.9017 7.99804 21.0337 9.09404 20.9977C10.145 20.9527 10.54 20.3147 11.816 20.3147C13.083 20.3147 13.442 20.9977 14.556 20.9707C15.688 20.9527 16.407 19.9467 17.098 18.9317C17.898 17.7637 18.23 16.6317 18.248 16.5687C18.221 16.5597 16.047 15.7247 16.02 13.2087C16.002 11.1067 17.736 10.1007 17.817 10.0557C16.829 8.6097 15.311 8.4477 14.781 8.4117C13.397 8.3037 12.239 9.1667 11.592 9.1667V9.1667Z" stroke="#F6F1F2" stroke-width="1.5" stroke-linecap="round" stroke-linejoin="round"/>
<path d="M13.6508 2.95396C14.5197 2.63044 15.0881 3.10744 14.9204 4.01938C14.7526 4.93131 13.9121 5.93285 13.0432 6.25637C12.1742 6.57989 11.6058 6.10289 11.7736 5.19095C11.9413 4.27902 12.7818 3.27748 13.6508 2.95396" stroke="#F6F1F2" stroke-width="1.49996" stroke-linecap="round" stroke-linejoin="round"/>
</svg>
