<svg width="24" height="24" viewBox="0 0 24 24" fill="none" xmlns="http://www.w3.org/2000/svg">
<path fill-rule="evenodd" clip-rule="evenodd" d="M17.7736 15.0039C17.5461 15.0029 17.3315 15.1096 17.1949 15.2916C16.8298 15.7786 16.0664 16.7964 15.4196 17.6589C14.795 18.4919 14.8779 19.6574 15.6141 20.3936V20.3936C16.3503 21.1298 17.5158 21.2127 18.3487 20.588L20.7133 18.8148C20.8961 18.6777 21.0037 18.4626 21.0037 18.2341V17.6327C21.0037 16.9355 20.7268 16.2669 20.2338 15.7739V15.7739C19.7408 15.2809 19.0722 15.0039 18.375 15.0039H17.7736Z" stroke="#F6F1F2" stroke-width="1.5" stroke-linecap="round" stroke-linejoin="round"/>
<path fill-rule="evenodd" clip-rule="evenodd" d="M6.2263 15.0039C6.45385 15.0029 6.66846 15.1096 6.80503 15.2916C7.17018 15.7786 7.93355 16.7964 8.58034 17.6589C9.20498 18.4919 9.12208 19.6574 8.38585 20.3936V20.3936C7.64967 21.1298 6.48418 21.2127 5.65123 20.588L3.28663 18.8148C3.10381 18.6778 2.99622 18.4626 2.99622 18.2341V17.6327C2.99622 16.9355 3.27317 16.2669 3.76616 15.7739V15.7739C4.25913 15.2809 4.92776 15.0039 5.62494 15.0039H6.2263Z" stroke="#F6F1F2" stroke-width="1.5" stroke-linecap="round" stroke-linejoin="round"/>
<path fill-rule="evenodd" clip-rule="evenodd" d="M10.052 11.4326L11.164 11.9885C11.69 12.2515 12.3092 12.2515 12.8353 11.9885L13.9472 11.4326C14.2861 11.2631 14.5002 10.9167 14.5002 10.5377C14.5002 10.1588 14.2861 9.81241 13.9472 9.64294L13.2531 9.2959C12.464 8.90137 11.5352 8.90137 10.7461 9.2959L10.052 9.64294C9.71312 9.81241 9.49902 10.1588 9.49902 10.5377C9.49902 10.9167 9.71312 11.2631 10.052 11.4326Z" stroke="#F6F1F2" stroke-width="1.5" stroke-linecap="round" stroke-linejoin="round"/>
<path d="M10.4994 7.5V9.42029" stroke="#F6F1F2" stroke-width="1.5" stroke-linecap="round" stroke-linejoin="round"/>
<path d="M13.5006 7.5V9.42029" stroke="#F6F1F2" stroke-width="1.5" stroke-linecap="round" stroke-linejoin="round"/>
<path d="M15.0716 18.3732C15.6437 15.9789 15.3162 13.4578 14.1515 11.2891" stroke="#F6F1F2" stroke-width="1.5" stroke-linecap="round" stroke-linejoin="round"/>
<path d="M9.8483 11.293C8.68367 13.4616 8.35629 15.9825 8.92836 18.3767" stroke="#F6F1F2" stroke-width="1.5" stroke-linecap="round" stroke-linejoin="round"/>
<path d="M5.12586 15.0505C5.10626 14.609 5.23394 14.1735 5.48881 13.8124L5.63463 13.6082C6.84655 11.9115 7.49806 9.87854 7.49807 7.79344V7.49797C7.49807 5.01165 9.51363 2.99609 11.9999 2.99609C14.4863 2.99609 16.5018 5.01165 16.5018 7.49797V7.79344C16.5018 9.87854 17.1533 11.9115 18.3653 13.6082L18.5111 13.8124C18.766 14.1735 18.8936 14.609 18.874 15.0505" stroke="#F6F1F2" stroke-width="1.5" stroke-linecap="round" stroke-linejoin="round"/>
<path d="M15.3127 19.9969C14.7524 19.9813 14.2064 19.8166 13.7309 19.5197L13.6797 19.4876C12.6529 18.8421 11.3471 18.8421 10.3203 19.4876L10.2691 19.5197C9.79366 19.8166 9.24767 19.9813 8.68738 19.9969" stroke="#F6F1F2" stroke-width="1.5" stroke-linecap="round" stroke-linejoin="round"/>
</svg>
